<?xml version="1.0" encoding="UTF-8" standalone="no" ?>
<!DOCTYPE svg PUBLIC "-//W3C//DTD SVG 1.1//EN" "http://www.w3.org/Graphics/SVG/1.1/DTD/svg11.dtd">
<svg xmlns="http://www.w3.org/2000/svg" xmlns:xlink="http://www.w3.org/1999/xlink" version="1.1" width="1080" height="1080" viewBox="0 0 1080 1080" xml:space="preserve">
<desc>Created with Fabric.js 5.2.4</desc>
<defs>
</defs>
<g transform="matrix(1 0 0 1 540 540)" id="c631cb93-42a0-41b3-ae1d-23dae2ced888"  >
<rect style="stroke: none; stroke-width: 1; stroke-dasharray: none; stroke-linecap: butt; stroke-dashoffset: 0; stroke-linejoin: miter; stroke-miterlimit: 4; fill: rgb(255,255,255); fill-rule: nonzero; opacity: 1; visibility: hidden;" vector-effect="non-scaling-stroke"  x="-540" y="-540" rx="0" ry="0" width="1080" height="1080" />
</g>
<g transform="matrix(1 0 0 1 540 540)" id="d612342d-8818-4c1f-9edd-ce366b455faa"  >
</g>
<g transform="matrix(1 0 0 1 540 540)" id="7af2801e-6c6e-423f-ae22-d1aef4353a7a"  >
<path style="stroke: rgb(0,0,0); stroke-width: 0; stroke-dasharray: none; stroke-linecap: butt; stroke-dashoffset: 0; stroke-linejoin: miter; stroke-miterlimit: 4; fill: rgb(0,0,0); fill-rule: nonzero; opacity: 1;" vector-effect="non-scaling-stroke"  transform=" translate(-240, -210)" d="M 376 338 C 378 340 378 344 376 346 C 373 348 370 348 367 346 L 305 283 C 303 281 303 277 305 275 C 307 273 311 273 313 275 L 376 338 z M 240 148 C 274 148 302 176 302 210 C 302 244 274 272 240 272 C 206 272 178 244 178 210 C 178 176 206 148 240 148 z M 175 137 C 177 139 177 143 175 145 C 173 147 169 147 167 145 L 104 82 C 102 80 102 76 104 74 C 107 72 110 72 113 74 L 175 137 z M 426 204 C 430 204 432 207 432 210 C 432 213 430 216 426 216 L 338 216 C 334 216 332 213 332 210 C 332 207 334 204 338 204 L 426 204 z M 142 204 C 146 204 148 207 148 210 C 148 213 146 216 142 216 L 54 216 C 50 216 48 213 48 210 C 48 207 50 204 54 204 L 142 204 z M 367 74 C 370 72 373 72 376 74 C 378 76 378 80 376 82 L 313 145 C 311 147 307 147 305 145 C 303 143 303 139 305 137 L 367 74 z M 167 275 C 169 273 173 273 175 275 C 177 277 177 281 175 283 L 113 346 C 110 348 107 348 104 346 C 102 344 102 340 104 338 L 167 275 z M 365 256 C 369 257 370 260 369 263 C 367 266 364 268 361 267 L 328 253 C 325 252 324 248 325 245 C 326 242 330 241 333 242 L 365 256 z M 152 167 C 155 169 156 172 155 175 C 154 178 150 179 147 178 L 114 164 C 111 163 110 160 111 157 C 112 154 116 152 119 154 L 152 167 z M 286 84 C 287 81 290 80 293 81 C 296 82 298 86 296 89 L 283 122 C 282 125 278 126 275 125 C 272 124 271 120 272 117 L 286 84 z M 197 298 C 198 295 202 294 205 295 C 208 296 209 300 208 303 L 194 336 C 193 339 190 340 187 339 C 184 338 182 334 183 331 L 197 298 z M 361 154 C 364 152 367 154 369 157 C 370 160 368 163 365 164 L 333 178 C 330 179 326 178 325 175 C 324 172 325 168 328 167 L 361 154 z M 147 242 C 150 241 154 242 155 245 C 156 248 155 252 152 253 L 119 267 C 116 268 113 266 111 263 C 110 260 111 257 114 256 L 147 242 z M 296 331 C 298 334 296 338 293 339 C 290 340 287 339 286 336 L 272 303 C 271 300 272 296 275 295 C 278 294 282 295 283 298 L 296 331 z M 208 117 C 209 120 208 124 205 125 C 202 126 198 125 197 122 L 184 89 C 182 86 184 83 187 81 C 190 80 193 81 195 85 L 208 117 z M 234 24 C 234 20 237 18 240 18 C 243 18 246 20 246 24 L 246 112 C 246 115 243 118 240 118 C 237 118 234 115 234 112 L 234 24 z M 234 308 C 234 305 237 302 240 302 C 243 302 246 305 246 308 L 246 396 C 246 400 243 402 240 402 C 237 402 234 400 234 396 L 234 308 z M 240 284 C 281 284 314 251 314 210 C 314 169 281 136 240 136 C 199 136 166 169 166 210 C 166 251 199 284 240 284 z" stroke-linecap="round" />
</g>
</svg>