<?xml version="1.0" encoding="UTF-8" standalone="no" ?>
<!DOCTYPE svg PUBLIC "-//W3C//DTD SVG 1.1//EN" "http://www.w3.org/Graphics/SVG/1.1/DTD/svg11.dtd">
<svg xmlns="http://www.w3.org/2000/svg" xmlns:xlink="http://www.w3.org/1999/xlink" version="1.1" width="1080" height="1080" viewBox="0 0 1080 1080" xml:space="preserve">
<desc>Created with Fabric.js 5.2.4</desc>
<defs>
</defs>
<g transform="matrix(1 0 0 1 540 540)" id="35b811b3-ee85-40be-9b15-2378fb7cc1fe"  >
<rect style="stroke: none; stroke-width: 1; stroke-dasharray: none; stroke-linecap: butt; stroke-dashoffset: 0; stroke-linejoin: miter; stroke-miterlimit: 4; fill: rgb(255,255,255); fill-rule: nonzero; opacity: 1; visibility: hidden;" vector-effect="non-scaling-stroke"  x="-540" y="-540" rx="0" ry="0" width="1080" height="1080" />
</g>
<g transform="matrix(1 0 0 1 540 540)" id="1788cb44-5063-4526-8391-06f3fe72a433"  >
</g>
<g transform="matrix(1 0 0 1 540 540)"  >
<g style="" vector-effect="non-scaling-stroke"   >
		<g transform="matrix(1 0 0 1 -41.25 -0.75)"  >
<path style="stroke: none; stroke-width: 1; stroke-dasharray: none; stroke-linecap: butt; stroke-dashoffset: 0; stroke-linejoin: miter; stroke-miterlimit: 4; fill: rgb(0,0,0); fill-rule: nonzero; opacity: 1;" vector-effect="non-scaling-stroke"  transform=" translate(-212.75, -182.75)" d="M 175 137 C 177 139 177 143 175 145 C 173 147 169 147 167 145 L 104 82 C 102 80 102 76 104 74 C 107 72 110 72 113 74 L 175 137 z M 240 148 C 273 148 300 173 302 206 C 306 204 310 203 314 203 C 310 165 279 136 240 136 C 199 136 166 169 166 210 C 166 251 199 284 240 284 C 245 284 250 284 255 283 C 254 279 254 276 254 272 C 254 272 254 272 254 271 C 249 272 245 273 240 273 C 205 273 177 245 177 210 C 177 176 205 148 240 148 z M 142 204 C 146 204 148 207 148 210 C 148 213 146 216 142 216 L 54 216 C 50 216 48 213 48 210 C 48 207 50 204 54 204 L 142 204 z M 367 74 C 370 72 373 72 376 74 C 378 76 378 80 376 82 L 313 145 C 311 147 307 147 305 145 C 303 143 303 139 305 137 L 367 74 z M 167 275 C 169 273 173 273 175 275 C 177 277 177 281 175 283 L 113 346 C 110 348 107 348 104 346 C 102 344 102 340 104 338 L 167 275 z M 152 167 C 155 169 156 172 155 175 C 154 178 150 179 147 178 L 114 164 C 111 163 110 160 111 157 C 112 154 116 152 119 154 L 152 167 z M 286 84 C 287 81 290 80 293 81 C 296 82 298 86 296 89 L 283 122 C 282 125 278 126 275 125 C 272 124 271 120 272 117 L 286 84 z M 197 298 C 198 295 202 294 205 295 C 208 296 209 300 208 303 L 194 336 C 193 339 190 340 187 339 C 184 338 182 334 183 331 L 197 298 z M 361 154 C 364 152 367 154 369 157 C 370 160 368 163 365 164 L 333 178 C 330 179 326 178 325 175 C 324 172 325 168 328 167 L 361 154 z M 147 242 C 150 241 154 242 155 245 C 156 248 155 252 152 253 L 119 267 C 116 268 113 266 111 263 C 110 260 111 257 114 256 L 147 242 z M 208 117 C 209 120 208 124 205 125 C 202 126 198 125 197 122 L 184 89 C 182 86 184 83 187 81 C 190 80 193 81 195 85 L 208 117 z M 234 24 C 234 20 237 18 240 18 C 243 18 246 20 246 24 L 246 112 C 246 115 243 118 240 118 C 237 118 234 115 234 112 L 234 24 z" stroke-linecap="round" />
</g>
		<g transform="matrix(1 0 0 1 95.5 97)"  >
<path style="stroke: none; stroke-width: 1; stroke-dasharray: none; stroke-linecap: butt; stroke-dashoffset: 0; stroke-linejoin: miter; stroke-miterlimit: 4; fill: rgb(0,0,0); fill-rule: nonzero; opacity: 1;" vector-effect="non-scaling-stroke"  transform=" translate(-349.5, -280.5)" d="M 447 273 C 455 281 460 292 460 304 C 460 316 455 328 447 336 C 439 344 428 349 415 349 L 335 349 L 269 349 C 260 349 253 345 248 340 L 248 340 C 242 335 239 327 239 319 C 239 311 242 303 248 298 C 253 293 259 290 267 289 L 267 289 C 267 286 267 283 267 280 C 267 261 274 244 287 232 C 299 219 316 212 335 212 C 352 212 367 218 379 228 C 390 237 397 249 401 262 C 402 262 403 261 404 261 C 408 260 412 260 415 260 C 428 260 439 265 447 273 z M 448 304 C 448 295 444 287 438 281 C 433 275 424 271 415 271 C 412 271 410 272 407 272 C 406 273 404 273 403 274 C 403 274 403 274 403 275 C 403 277 403 278 403 280 C 403 283 403 286 403 289 C 402 292 402 294 401 297 C 400 300 397 302 394 301 C 391 301 389 297 390 294 C 390 292 391 290 391 287 C 391 285 392 283 392 280 C 392 279 392 277 391 276 C 391 274 391 273 391 271 C 391 271 391 271 391 271 C 389 257 382 246 372 237 C 362 229 349 224 335 224 C 319 224 305 230 295 240 C 285 250 278 265 278 280 C 278 283 278 285 279 287 C 279 290 279 292 280 294 C 281 297 279 301 276 301 C 275 302 274 302 273 301 C 272 301 271 301 271 301 C 270 301 269 301 269 301 C 264 301 259 303 256 306 C 253 309 251 314 251 319 C 251 324 253 328 256 332 L 256 332 L 256 332 C 259 335 264 337 269 337 L 335 337 L 415 337 C 424 337 433 333 438 327 C 444 321 448 313 448 304 z" stroke-linecap="round" />
</g>
</g>
</g>
</svg>