<?xml version="1.0" encoding="UTF-8" standalone="no"?>
<svg
   xmlns:dc="http://purl.org/dc/elements/1.1/"
   xmlns:cc="http://creativecommons.org/ns#"
   xmlns:rdf="http://www.w3.org/1999/02/22-rdf-syntax-ns#"
   xmlns:svg="http://www.w3.org/2000/svg"
   xmlns="http://www.w3.org/2000/svg"
   xmlns:sodipodi="http://sodipodi.sourceforge.net/DTD/sodipodi-0.dtd"
   xmlns:inkscape="http://www.inkscape.org/namespaces/inkscape"
   xml:space="preserve"
   width="480px"
   height="420px"
   version="1.1"
   style="shape-rendering:geometricPrecision; text-rendering:geometricPrecision; image-rendering:optimizeQuality; fill-rule:evenodd; clip-rule:evenodd"
   viewBox="0 0 480 420"
   id="svg31"
   sodipodi:docname="05_iday_monochrome_hollow.svg"
   inkscape:version="1.0.1 (3bc2e813f5, 2020-09-07)"><style
   id="style860"></style><metadata
   id="metadata35"><rdf:RDF><cc:Work
       rdf:about=""><dc:format>image/svg+xml</dc:format><dc:type
         rdf:resource="http://purl.org/dc/dcmitype/StillImage" /></cc:Work></rdf:RDF></metadata><sodipodi:namedview
   pagecolor="#ffffff"
   bordercolor="#666666"
   borderopacity="1"
   objecttolerance="10"
   gridtolerance="10"
   guidetolerance="10"
   inkscape:pageopacity="0"
   inkscape:pageshadow="2"
   inkscape:window-width="1920"
   inkscape:window-height="1009"
   id="namedview33"
   showgrid="false"
   inkscape:zoom="2.0047619"
   inkscape:cx="240"
   inkscape:cy="249.90499"
   inkscape:window-x="-8"
   inkscape:window-y="-8"
   inkscape:window-maximized="1"
   inkscape:current-layer="svg31" />
 <defs
   id="defs4">
  <style
   type="text/css"
   id="style2">
   <![CDATA[
    .fil0 {fill:white;fill-opacity:0.000000}
    .fil1 {fill:white;fill-opacity:0.101961}
    .fil2 {fill:white;fill-opacity:0.200000}
    .fil3 {fill:white;fill-opacity:0.301961}
    .fil4 {fill:white;fill-opacity:0.400000}
    .fil5 {fill:white;fill-opacity:0.501961}
    .fil6 {fill:white;fill-opacity:0.600000}
    .fil7 {fill:white;fill-opacity:0.701961}
    .fil8 {fill:white;fill-opacity:0.800000}
    .fil9 {fill:white;fill-opacity:0.901961}
   ]]>
  </style>
 </defs>
 <g
   id="Layer_x0020_1"
   style="fill:#000000;fill-opacity:1">
  <metadata
   id="CorelCorpID_0Corel-Layer" />
  <g
   id="_249833616"
   style="fill:#000000;fill-opacity:1">
   <polygon
   class="fil0"
   points="480,221 0,221 0,210 480,210 "
   id="polygon7"
   style="fill:#000000;fill-opacity:1" />
   <g
   id="g25"
   style="fill:#000000;fill-opacity:1">
    <path
   class="fil1"
   d="M480 242c-160,0 -320,0 -480,0 0,-4 0,-7 0,-11 160,0 320,0 480,0 0,4 0,7 0,11z"
   id="path9"
   style="fill:#000000;fill-opacity:1" />
    <path
   class="fil2"
   d="M480 263c-160,0 -320,0 -480,0 0,-4 0,-7 0,-11 160,0 320,0 480,0 0,4 0,7 0,11z"
   id="path11"
   style="fill:#000000;fill-opacity:1" />
    <path
   class="fil3"
   d="M480 284c-160,0 -320,0 -480,0 0,-4 0,-7 0,-11 160,0 320,0 480,0 0,4 0,7 0,11z"
   id="path13"
   style="fill:#000000;fill-opacity:1" />
    <path
   class="fil4"
   d="M480 305c-160,0 -320,0 -480,0 0,-4 0,-7 0,-11 160,0 320,0 480,0 0,4 0,7 0,11z"
   id="path15"
   style="fill:#000000;fill-opacity:1" />
    <path
   class="fil5"
   d="M480 326c-160,0 -320,0 -480,0 0,-4 0,-7 0,-11 160,0 320,0 480,0 0,4 0,7 0,11z"
   id="path17"
   style="fill:#000000;fill-opacity:1" />
    <path
   class="fil6"
   d="M480 347c-160,0 -320,0 -480,0 0,-4 0,-7 0,-11 160,0 320,0 480,0 0,4 0,7 0,11z"
   id="path19"
   style="fill:#000000;fill-opacity:1" />
    <path
   class="fil7"
   d="M480 368c-160,0 -320,0 -480,0 0,-4 0,-7 0,-11 160,0 320,0 480,0 0,4 0,7 0,11z"
   id="path21"
   style="fill:#000000;fill-opacity:1" />
    <path
   class="fil8"
   d="M480 389c-160,0 -320,0 -480,0 0,-4 0,-7 0,-11 160,0 320,0 480,0 0,4 0,7 0,11z"
   id="path23"
   style="fill:#000000;fill-opacity:1" />
   </g>
   <polygon
   class="fil9"
   points="480,410 0,410 0,399 480,399 "
   id="polygon27"
   style="fill:#000000;fill-opacity:1" />
  </g>
 </g>
</svg>
