<?xml version="1.0" encoding="UTF-8" standalone="no"?>
<svg
   xmlns:dc="http://purl.org/dc/elements/1.1/"
   xmlns:cc="http://creativecommons.org/ns#"
   xmlns:rdf="http://www.w3.org/1999/02/22-rdf-syntax-ns#"
   xmlns:svg="http://www.w3.org/2000/svg"
   xmlns="http://www.w3.org/2000/svg"
   xmlns:sodipodi="http://sodipodi.sourceforge.net/DTD/sodipodi-0.dtd"
   xmlns:inkscape="http://www.inkscape.org/namespaces/inkscape"
   xml:space="preserve"
   width="480px"
   height="420px"
   version="1.1"
   style="shape-rendering:geometricPrecision; text-rendering:geometricPrecision; image-rendering:optimizeQuality; fill-rule:evenodd; clip-rule:evenodd"
   viewBox="0 0 480 420"
   id="svg35"
   sodipodi:docname="17_iday_monochrome_hollow.svg"
   inkscape:version="1.0.1 (3bc2e813f5, 2020-09-07)"><style
   id="style864"></style><metadata
   id="metadata39"><rdf:RDF><cc:Work
       rdf:about=""><dc:format>image/svg+xml</dc:format><dc:type
         rdf:resource="http://purl.org/dc/dcmitype/StillImage" /></cc:Work></rdf:RDF></metadata><sodipodi:namedview
   pagecolor="#ffffff"
   bordercolor="#666666"
   borderopacity="1"
   objecttolerance="10"
   gridtolerance="10"
   guidetolerance="10"
   inkscape:pageopacity="0"
   inkscape:pageshadow="2"
   inkscape:window-width="1920"
   inkscape:window-height="1009"
   id="namedview37"
   showgrid="false"
   inkscape:zoom="2.0047619"
   inkscape:cx="240"
   inkscape:cy="210"
   inkscape:window-x="-8"
   inkscape:window-y="-8"
   inkscape:window-maximized="1"
   inkscape:current-layer="svg35" />
 <defs
   id="defs4">
  <style
   type="text/css"
   id="style2">
   <![CDATA[
    .str0 {stroke:#FEFEFE;stroke-width:11.811;stroke-linecap:round}
    .fil1 {fill:none}
    .fil0 {fill:white;fill-rule:nonzero}
   ]]>
  </style>
 </defs>
 <g
   id="Layer_x0020_1"
   style="fill:#000000;fill-opacity:1">
  <metadata
   id="CorelCorpID_0Corel-Layer" />
  <path
   class="fil0"
   d="M447 273c8,8 13,19 13,31 0,12 -5,24 -13,32 -8,8 -19,13 -32,13l-80 0 -66 0c-9,0 -16,-4 -21,-9l0 0c-6,-5 -9,-13 -9,-21 0,-8 3,-16 9,-21 5,-5 11,-8 19,-9l0 0c0,-3 0,-6 0,-9 0,-19 7,-36 20,-48 12,-13 29,-20 48,-20 17,0 32,6 44,16 11,9 18,21 22,34 1,0 2,-1 3,-1 4,-1 8,-1 11,-1 13,0 24,5 32,13zm1 31c0,-9 -4,-17 -10,-23 -5,-6 -14,-10 -23,-10 -3,0 -5,1 -8,1 -1,1 -3,1 -4,2 0,0 0,0 0,1 0,2 0,3 0,5 0,3 0,6 0,9 -1,3 -1,5 -2,8 -1,3 -4,5 -7,4 -3,0 -5,-4 -4,-7 0,-2 1,-4 1,-7 0,-2 1,-4 1,-7 0,-1 0,-3 -1,-4 0,-2 0,-3 0,-5 0,0 0,0 0,0 -2,-14 -9,-25 -19,-34 -10,-8 -23,-13 -37,-13 -16,0 -30,6 -40,16 -10,10 -17,25 -17,40 0,3 0,5 1,7 0,3 0,5 1,7 1,3 -1,7 -4,7 -1,1 -2,1 -3,0 -1,0 -2,0 -2,0 -1,0 -2,0 -2,0 -5,0 -10,2 -13,5 -3,3 -5,8 -5,13 0,5 2,9 5,13l0 0 0 0c3,3 8,5 13,5l66 0 80 0c9,0 18,-4 23,-10 6,-6 10,-14 10,-23z"
   id="path7"
   style="fill:#000000;fill-opacity:1" />
  <path
   class="fil0"
   d="M140 118l-36 -36c-2,-2 -2,-6 0,-8 3,-2 6,-2 9,0l42 42c-5,1 -10,1 -15,2zm286 86c4,0 6,3 6,6 0,3 -2,6 -6,6l-42 0c-6,-5 -14,-9 -22,-12l64 0zm-59 -130c3,-2 6,-2 9,0 2,2 2,6 0,8l-63 63c-2,2 -6,2 -8,0 -2,-2 -2,-6 0,-8l62 -63zm-81 10c1,-3 4,-4 7,-3 3,1 5,5 3,8l-13 33c-1,3 -5,4 -8,3 -3,-1 -4,-5 -3,-8l14 -33zm75 70c3,-2 6,0 8,3 1,3 -1,6 -4,7l-32 14c-3,1 -7,0 -8,-3 -1,-3 0,-7 3,-8l33 -13zm-153 -37c1,3 0,7 -3,8l0 0c-3,-1 -5,-2 -8,-3 0,0 0,0 0,0l-13 -33c-2,-3 0,-6 3,-8 3,-1 6,0 8,4l13 32zm26 -93c0,-4 3,-6 6,-6 3,0 6,2 6,6l0 88c0,3 -3,6 -6,6 -3,0 -6,-3 -6,-6l0 -88zm79 171c-7,-34 -37,-59 -73,-59 -5,0 -10,0 -14,1 4,3 8,7 12,10 1,0 1,0 2,0 27,0 50,18 59,43 5,1 9,3 14,5z"
   id="path9"
   style="fill:#000000;fill-opacity:1" />
  <path
   class="fil0"
   d="M290 213c-3,-1 -6,-1 -10,-1 -4,0 -9,0 -13,1 -3,1 -5,2 -8,3 0,2 0,3 0,4 0,3 1,5 1,8 0,4 -1,8 -1,12 -1,4 -2,8 -3,12 0,3 -4,5 -7,4 -3,0 -5,-4 -4,-7 1,-3 2,-7 2,-10 0,-4 1,-8 1,-11 0,-3 0,-5 -1,-7 0,-3 0,-5 0,-7l0 0c-4,-21 -15,-40 -30,-53 -15,-13 -35,-20 -56,-20 -25,0 -46,9 -62,25 -16,16 -26,38 -26,62 0,3 1,7 1,11 0,3 1,7 2,10 1,3 -1,7 -4,7 -1,1 -2,1 -3,0 -1,0 -2,0 -4,0 -1,0 -2,0 -3,0 -8,0 -16,3 -21,8 -6,6 -9,13 -9,21 0,9 3,16 9,21 5,6 13,9 21,9l99 0 65 0c0,1 0,3 0,4 0,3 0,5 1,8l-66 0 -99 0c-12,0 -22,-5 -30,-12 -7,-8 -12,-18 -12,-30 0,-11 5,-22 12,-29 8,-8 18,-12 30,-12 0,0 0,0 1,0 0,-1 -1,-3 -1,-4 0,-4 -1,-8 -1,-12 0,-28 12,-52 29,-70 18,-18 43,-29 71,-29 24,0 46,9 64,23 15,14 27,32 32,52 2,-1 5,-1 7,-2 6,-1 11,-2 16,-2 9,0 17,2 25,5 -5,2 -10,5 -15,8z"
   id="path11"
   style="fill:#000000;fill-opacity:1" />
  <g
   id="_249252344"
   style="fill:#000000;fill-opacity:1">
   <line
   class="fil1 str0"
   x1="66"
   y1="345"
   x2="57"
   y2="393"
   id="line13"
   style="fill:#000000;fill-opacity:1" />
   <line
   class="fil1 str0"
   x1="43"
   y1="353"
   x2="80"
   y2="385"
   id="line15"
   style="fill:#000000;fill-opacity:1" />
   <line
   class="fil1 str0"
   x1="38"
   y1="377"
   x2="84"
   y2="361"
   id="line17"
   style="fill:#000000;fill-opacity:1" />
  </g>
  <g
   id="_249259280"
   style="fill:#000000;fill-opacity:1">
   <line
   class="fil1 str0"
   x1="217"
   y1="345"
   x2="208"
   y2="393"
   id="line20"
   style="fill:#000000;fill-opacity:1" />
   <line
   class="fil1 str0"
   x1="194"
   y1="353"
   x2="231"
   y2="385"
   id="line22"
   style="fill:#000000;fill-opacity:1" />
   <line
   class="fil1 str0"
   x1="189"
   y1="377"
   x2="235"
   y2="361"
   id="line24"
   style="fill:#000000;fill-opacity:1" />
  </g>
  <g
   id="_249277352"
   style="fill:#000000;fill-opacity:1">
   <line
   class="fil1 str0"
   x1="142"
   y1="366"
   x2="132"
   y2="414"
   id="line27"
   style="fill:#000000;fill-opacity:1" />
   <line
   class="fil1 str0"
   x1="118"
   y1="374"
   x2="155"
   y2="406"
   id="line29"
   style="fill:#000000;fill-opacity:1" />
   <line
   class="fil1 str0"
   x1="114"
   y1="398"
   x2="160"
   y2="382"
   id="line31"
   style="fill:#000000;fill-opacity:1" />
  </g>
 </g>
</svg>
